<svg width="434" height="961" viewBox="0 0 434 961" fill="#0F172A" xmlns="http://www.w3.org/2000/svg">
<path d="M398.544 215.463L32.45 9.13283C22.6683 3.56566 11.6755 0.645447 0.5 0.645447C-10.6755 0.645447 -21.6684 3.56566 -31.45 9.13283L-397.544 215.549C-407.999 221.441 -416.726 230.117 -422.815 240.669C-428.903 251.222 -432.129 263.265 -432.156 275.541V685.373C-432.129 697.649 -428.903 709.692 -422.815 720.245C-416.726 730.798 -407.999 739.473 -397.544 745.366L-31.45 951.781C-21.6684 957.349 -10.6755 960.269 0.5 960.269C11.6755 960.269 22.6683 957.349 32.45 951.781L398.544 745.366C408.999 739.473 417.726 730.798 423.815 720.245C429.903 709.692 433.129 697.649 433.156 685.373V275.584C433.152 263.286 429.936 251.217 423.846 240.639C417.757 230.062 409.017 221.366 398.544 215.463ZM0.5 69.125L334.727 257.672L210.879 327.52L-123.389 138.973L0.5 69.125ZM0.5 446.219L-333.727 257.672L-192.698 178.139L141.529 366.686L0.5 446.219ZM-365.594 317.664L-32.7812 505.268V872.892L-365.594 685.416V317.664ZM366.594 685.245L33.7812 872.892V505.44L166.906 430.407V583.344C166.906 592.436 170.413 601.155 176.654 607.584C182.896 614.013 191.361 617.625 200.188 617.625C209.014 617.625 217.479 614.013 223.721 607.584C229.962 601.155 233.469 592.436 233.469 583.344V392.869L366.594 317.664V685.202V685.245Z" fill="#0F172A"/>
</svg>

